<?xml version="1.0" encoding="utf-8" standalone="no"?>
<!DOCTYPE svg PUBLIC "-//W3C//DTD SVG 1.1//EN"
  "http://www.w3.org/Graphics/SVG/1.1/DTD/svg11.dtd">
<svg xmlns:xlink="http://www.w3.org/1999/xlink" width="975.73125pt" height="753.62875pt" viewBox="0 0 975.73125 753.62875" xmlns="http://www.w3.org/2000/svg" version="1.1">
 <metadata>
  <rdf:RDF xmlns:dc="http://purl.org/dc/elements/1.1/" xmlns:cc="http://creativecommons.org/ns#" xmlns:rdf="http://www.w3.org/1999/02/22-rdf-syntax-ns#">
   <cc:Work>
    <dc:type rdf:resource="http://purl.org/dc/dcmitype/StillImage"/>
    <dc:date>2026-01-16T10:54:37.263649</dc:date>
    <dc:format>image/svg+xml</dc:format>
    <dc:creator>
     <cc:Agent>
      <dc:title>Matplotlib v3.10.6, https://matplotlib.org/</dc:title>
     </cc:Agent>
    </dc:creator>
   </cc:Work>
  </rdf:RDF>
 </metadata>
 <defs>
  <style type="text/css">*{stroke-linejoin: round; stroke-linecap: butt}</style>
 </defs>
 <g id="figure_1">
  <g id="patch_1">
   <path d="M 0 753.62875 
L 975.73125 753.62875 
L 975.73125 0 
L 0 0 
z
" style="fill: #ffffff"/>
  </g>
  <g id="axes_1">
   <g id="patch_2">
    <path d="M 75.73125 696.71625 
L 968.53125 696.71625 
L 968.53125 31.43625 
L 75.73125 31.43625 
z
" style="fill: #ffffff"/>
   </g>
   <g id="matplotlib.axis_1">
    <g id="xtick_1">
     <g id="line2d_1">
      <path d="M 116.313068 696.71625 
L 116.313068 31.43625 
" clip-path="url(#p2eaf5a90e7)" style="fill: none; stroke: #b0b0b0; stroke-width: 0.8; stroke-linecap: square"/>
     </g>
     <g id="line2d_2">
      <defs>
       <path id="m0e6de6e681" d="M 0 0 
L 0 3.5 
" style="stroke: #000000; stroke-width: 0.8"/>
      </defs>
      <g>
       <use xlink:href="#m0e6de6e681" x="116.313068" y="696.71625" style="stroke: #000000; stroke-width: 0.8"/>
      </g>
     </g>
     <g id="text_1">
      <!-- 0 -->
      <g transform="translate(109.950568 718.913125) scale(0.2 -0.2)">
       <defs>
        <path id="DejaVuSans-30" d="M 2034 4250 
Q 1547 4250 1301 3770 
Q 1056 3291 1056 2328 
Q 1056 1369 1301 889 
Q 1547 409 2034 409 
Q 2525 409 2770 889 
Q 3016 1369 3016 2328 
Q 3016 3291 2770 3770 
Q 2525 4250 2034 4250 
z
M 2034 4750 
Q 2819 4750 3233 4129 
Q 3647 3509 3647 2328 
Q 3647 1150 3233 529 
Q 2819 -91 2034 -91 
Q 1250 -91 836 529 
Q 422 1150 422 2328 
Q 422 3509 836 4129 
Q 1250 4750 2034 4750 
z
" transform="scale(0.015625)"/>
       </defs>
       <use xlink:href="#DejaVuSans-30"/>
      </g>
     </g>
    </g>
    <g id="xtick_2">
     <g id="line2d_3">
      <path d="M 281.953142 696.71625 
L 281.953142 31.43625 
" clip-path="url(#p2eaf5a90e7)" style="fill: none; stroke: #b0b0b0; stroke-width: 0.8; stroke-linecap: square"/>
     </g>
     <g id="line2d_4">
      <g>
       <use xlink:href="#m0e6de6e681" x="281.953142" y="696.71625" style="stroke: #000000; stroke-width: 0.8"/>
      </g>
     </g>
     <g id="text_2">
      <!-- 10 -->
      <g transform="translate(269.228142 718.913125) scale(0.2 -0.2)">
       <defs>
        <path id="DejaVuSans-31" d="M 794 531 
L 1825 531 
L 1825 4091 
L 703 3866 
L 703 4441 
L 1819 4666 
L 2450 4666 
L 2450 531 
L 3481 531 
L 3481 0 
L 794 0 
L 794 531 
z
" transform="scale(0.015625)"/>
       </defs>
       <use xlink:href="#DejaVuSans-31"/>
       <use xlink:href="#DejaVuSans-30" transform="translate(63.623047 0)"/>
      </g>
     </g>
    </g>
    <g id="xtick_3">
     <g id="line2d_5">
      <path d="M 447.593217 696.71625 
L 447.593217 31.43625 
" clip-path="url(#p2eaf5a90e7)" style="fill: none; stroke: #b0b0b0; stroke-width: 0.8; stroke-linecap: square"/>
     </g>
     <g id="line2d_6">
      <g>
       <use xlink:href="#m0e6de6e681" x="447.593217" y="696.71625" style="stroke: #000000; stroke-width: 0.8"/>
      </g>
     </g>
     <g id="text_3">
      <!-- 20 -->
      <g transform="translate(434.868217 718.913125) scale(0.2 -0.2)">
       <defs>
        <path id="DejaVuSans-32" d="M 1228 531 
L 3431 531 
L 3431 0 
L 469 0 
L 469 531 
Q 828 903 1448 1529 
Q 2069 2156 2228 2338 
Q 2531 2678 2651 2914 
Q 2772 3150 2772 3378 
Q 2772 3750 2511 3984 
Q 2250 4219 1831 4219 
Q 1534 4219 1204 4116 
Q 875 4013 500 3803 
L 500 4441 
Q 881 4594 1212 4672 
Q 1544 4750 1819 4750 
Q 2544 4750 2975 4387 
Q 3406 4025 3406 3419 
Q 3406 3131 3298 2873 
Q 3191 2616 2906 2266 
Q 2828 2175 2409 1742 
Q 1991 1309 1228 531 
z
" transform="scale(0.015625)"/>
       </defs>
       <use xlink:href="#DejaVuSans-32"/>
       <use xlink:href="#DejaVuSans-30" transform="translate(63.623047 0)"/>
      </g>
     </g>
    </g>
    <g id="xtick_4">
     <g id="line2d_7">
      <path d="M 613.233291 696.71625 
L 613.233291 31.43625 
" clip-path="url(#p2eaf5a90e7)" style="fill: none; stroke: #b0b0b0; stroke-width: 0.8; stroke-linecap: square"/>
     </g>
     <g id="line2d_8">
      <g>
       <use xlink:href="#m0e6de6e681" x="613.233291" y="696.71625" style="stroke: #000000; stroke-width: 0.8"/>
      </g>
     </g>
     <g id="text_4">
      <!-- 30 -->
      <g transform="translate(600.508291 718.913125) scale(0.2 -0.2)">
       <defs>
        <path id="DejaVuSans-33" d="M 2597 2516 
Q 3050 2419 3304 2112 
Q 3559 1806 3559 1356 
Q 3559 666 3084 287 
Q 2609 -91 1734 -91 
Q 1441 -91 1130 -33 
Q 819 25 488 141 
L 488 750 
Q 750 597 1062 519 
Q 1375 441 1716 441 
Q 2309 441 2620 675 
Q 2931 909 2931 1356 
Q 2931 1769 2642 2001 
Q 2353 2234 1838 2234 
L 1294 2234 
L 1294 2753 
L 1863 2753 
Q 2328 2753 2575 2939 
Q 2822 3125 2822 3475 
Q 2822 3834 2567 4026 
Q 2313 4219 1838 4219 
Q 1578 4219 1281 4162 
Q 984 4106 628 3988 
L 628 4550 
Q 988 4650 1302 4700 
Q 1616 4750 1894 4750 
Q 2613 4750 3031 4423 
Q 3450 4097 3450 3541 
Q 3450 3153 3228 2886 
Q 3006 2619 2597 2516 
z
" transform="scale(0.015625)"/>
       </defs>
       <use xlink:href="#DejaVuSans-33"/>
       <use xlink:href="#DejaVuSans-30" transform="translate(63.623047 0)"/>
      </g>
     </g>
    </g>
    <g id="xtick_5">
     <g id="line2d_9">
      <path d="M 778.873365 696.71625 
L 778.873365 31.43625 
" clip-path="url(#p2eaf5a90e7)" style="fill: none; stroke: #b0b0b0; stroke-width: 0.8; stroke-linecap: square"/>
     </g>
     <g id="line2d_10">
      <g>
       <use xlink:href="#m0e6de6e681" x="778.873365" y="696.71625" style="stroke: #000000; stroke-width: 0.8"/>
      </g>
     </g>
     <g id="text_5">
      <!-- 40 -->
      <g transform="translate(766.148365 718.913125) scale(0.2 -0.2)">
       <defs>
        <path id="DejaVuSans-34" d="M 2419 4116 
L 825 1625 
L 2419 1625 
L 2419 4116 
z
M 2253 4666 
L 3047 4666 
L 3047 1625 
L 3713 1625 
L 3713 1100 
L 3047 1100 
L 3047 0 
L 2419 0 
L 2419 1100 
L 313 1100 
L 313 1709 
L 2253 4666 
z
" transform="scale(0.015625)"/>
       </defs>
       <use xlink:href="#DejaVuSans-34"/>
       <use xlink:href="#DejaVuSans-30" transform="translate(63.623047 0)"/>
      </g>
     </g>
    </g>
    <g id="xtick_6">
     <g id="line2d_11">
      <path d="M 944.513439 696.71625 
L 944.513439 31.43625 
" clip-path="url(#p2eaf5a90e7)" style="fill: none; stroke: #b0b0b0; stroke-width: 0.8; stroke-linecap: square"/>
     </g>
     <g id="line2d_12">
      <g>
       <use xlink:href="#m0e6de6e681" x="944.513439" y="696.71625" style="stroke: #000000; stroke-width: 0.8"/>
      </g>
     </g>
     <g id="text_6">
      <!-- 50 -->
      <g transform="translate(931.788439 718.913125) scale(0.2 -0.2)">
       <defs>
        <path id="DejaVuSans-35" d="M 691 4666 
L 3169 4666 
L 3169 4134 
L 1269 4134 
L 1269 2991 
Q 1406 3038 1543 3061 
Q 1681 3084 1819 3084 
Q 2600 3084 3056 2656 
Q 3513 2228 3513 1497 
Q 3513 744 3044 326 
Q 2575 -91 1722 -91 
Q 1428 -91 1123 -41 
Q 819 9 494 109 
L 494 744 
Q 775 591 1075 516 
Q 1375 441 1709 441 
Q 2250 441 2565 725 
Q 2881 1009 2881 1497 
Q 2881 1984 2565 2268 
Q 2250 2553 1709 2553 
Q 1456 2553 1204 2497 
Q 953 2441 691 2322 
L 691 4666 
z
" transform="scale(0.015625)"/>
       </defs>
       <use xlink:href="#DejaVuSans-35"/>
       <use xlink:href="#DejaVuSans-30" transform="translate(63.623047 0)"/>
      </g>
     </g>
    </g>
    <g id="text_7">
     <!-- Trial -->
     <g transform="translate(501.703125 742.269375) scale(0.2 -0.2)">
      <defs>
       <path id="DejaVuSans-54" d="M -19 4666 
L 3928 4666 
L 3928 4134 
L 2272 4134 
L 2272 0 
L 1638 0 
L 1638 4134 
L -19 4134 
L -19 4666 
z
" transform="scale(0.015625)"/>
       <path id="DejaVuSans-72" d="M 2631 2963 
Q 2534 3019 2420 3045 
Q 2306 3072 2169 3072 
Q 1681 3072 1420 2755 
Q 1159 2438 1159 1844 
L 1159 0 
L 581 0 
L 581 3500 
L 1159 3500 
L 1159 2956 
Q 1341 3275 1631 3429 
Q 1922 3584 2338 3584 
Q 2397 3584 2469 3576 
Q 2541 3569 2628 3553 
L 2631 2963 
z
" transform="scale(0.015625)"/>
       <path id="DejaVuSans-69" d="M 603 3500 
L 1178 3500 
L 1178 0 
L 603 0 
L 603 3500 
z
M 603 4863 
L 1178 4863 
L 1178 4134 
L 603 4134 
L 603 4863 
z
" transform="scale(0.015625)"/>
       <path id="DejaVuSans-61" d="M 2194 1759 
Q 1497 1759 1228 1600 
Q 959 1441 959 1056 
Q 959 750 1161 570 
Q 1363 391 1709 391 
Q 2188 391 2477 730 
Q 2766 1069 2766 1631 
L 2766 1759 
L 2194 1759 
z
M 3341 1997 
L 3341 0 
L 2766 0 
L 2766 531 
Q 2569 213 2275 61 
Q 1981 -91 1556 -91 
Q 1019 -91 701 211 
Q 384 513 384 1019 
Q 384 1609 779 1909 
Q 1175 2209 1959 2209 
L 2766 2209 
L 2766 2266 
Q 2766 2663 2505 2880 
Q 2244 3097 1772 3097 
Q 1472 3097 1187 3025 
Q 903 2953 641 2809 
L 641 3341 
Q 956 3463 1253 3523 
Q 1550 3584 1831 3584 
Q 2591 3584 2966 3190 
Q 3341 2797 3341 1997 
z
" transform="scale(0.015625)"/>
       <path id="DejaVuSans-6c" d="M 603 4863 
L 1178 4863 
L 1178 0 
L 603 0 
L 603 4863 
z
" transform="scale(0.015625)"/>
      </defs>
      <use xlink:href="#DejaVuSans-54"/>
      <use xlink:href="#DejaVuSans-72" transform="translate(46.333984 0)"/>
      <use xlink:href="#DejaVuSans-69" transform="translate(87.447266 0)"/>
      <use xlink:href="#DejaVuSans-61" transform="translate(115.230469 0)"/>
      <use xlink:href="#DejaVuSans-6c" transform="translate(176.509766 0)"/>
     </g>
    </g>
   </g>
   <g id="matplotlib.axis_2">
    <g id="ytick_1">
     <g id="line2d_13">
      <path d="M 75.73125 648.860716 
L 968.53125 648.860716 
" clip-path="url(#p2eaf5a90e7)" style="fill: none; stroke: #b0b0b0; stroke-width: 0.8; stroke-linecap: square"/>
     </g>
     <g id="line2d_14">
      <defs>
       <path id="m3a631ad71d" d="M 0 0 
L -3.5 0 
" style="stroke: #000000; stroke-width: 0.8"/>
      </defs>
      <g>
       <use xlink:href="#m3a631ad71d" x="75.73125" y="648.860716" style="stroke: #000000; stroke-width: 0.8"/>
      </g>
     </g>
     <g id="text_8">
      <!-- 50 -->
      <g transform="translate(43.28125 656.459154) scale(0.2 -0.2)">
       <use xlink:href="#DejaVuSans-35"/>
       <use xlink:href="#DejaVuSans-30" transform="translate(63.623047 0)"/>
      </g>
     </g>
    </g>
    <g id="ytick_2">
     <g id="line2d_15">
      <path d="M 75.73125 531.423823 
L 968.53125 531.423823 
" clip-path="url(#p2eaf5a90e7)" style="fill: none; stroke: #b0b0b0; stroke-width: 0.8; stroke-linecap: square"/>
     </g>
     <g id="line2d_16">
      <g>
       <use xlink:href="#m3a631ad71d" x="75.73125" y="531.423823" style="stroke: #000000; stroke-width: 0.8"/>
      </g>
     </g>
     <g id="text_9">
      <!-- 60 -->
      <g transform="translate(43.28125 539.02226) scale(0.2 -0.2)">
       <defs>
        <path id="DejaVuSans-36" d="M 2113 2584 
Q 1688 2584 1439 2293 
Q 1191 2003 1191 1497 
Q 1191 994 1439 701 
Q 1688 409 2113 409 
Q 2538 409 2786 701 
Q 3034 994 3034 1497 
Q 3034 2003 2786 2293 
Q 2538 2584 2113 2584 
z
M 3366 4563 
L 3366 3988 
Q 3128 4100 2886 4159 
Q 2644 4219 2406 4219 
Q 1781 4219 1451 3797 
Q 1122 3375 1075 2522 
Q 1259 2794 1537 2939 
Q 1816 3084 2150 3084 
Q 2853 3084 3261 2657 
Q 3669 2231 3669 1497 
Q 3669 778 3244 343 
Q 2819 -91 2113 -91 
Q 1303 -91 875 529 
Q 447 1150 447 2328 
Q 447 3434 972 4092 
Q 1497 4750 2381 4750 
Q 2619 4750 2861 4703 
Q 3103 4656 3366 4563 
z
" transform="scale(0.015625)"/>
       </defs>
       <use xlink:href="#DejaVuSans-36"/>
       <use xlink:href="#DejaVuSans-30" transform="translate(63.623047 0)"/>
      </g>
     </g>
    </g>
    <g id="ytick_3">
     <g id="line2d_17">
      <path d="M 75.73125 413.98693 
L 968.53125 413.98693 
" clip-path="url(#p2eaf5a90e7)" style="fill: none; stroke: #b0b0b0; stroke-width: 0.8; stroke-linecap: square"/>
     </g>
     <g id="line2d_18">
      <g>
       <use xlink:href="#m3a631ad71d" x="75.73125" y="413.98693" style="stroke: #000000; stroke-width: 0.8"/>
      </g>
     </g>
     <g id="text_10">
      <!-- 70 -->
      <g transform="translate(43.28125 421.585367) scale(0.2 -0.2)">
       <defs>
        <path id="DejaVuSans-37" d="M 525 4666 
L 3525 4666 
L 3525 4397 
L 1831 0 
L 1172 0 
L 2766 4134 
L 525 4134 
L 525 4666 
z
" transform="scale(0.015625)"/>
       </defs>
       <use xlink:href="#DejaVuSans-37"/>
       <use xlink:href="#DejaVuSans-30" transform="translate(63.623047 0)"/>
      </g>
     </g>
    </g>
    <g id="ytick_4">
     <g id="line2d_19">
      <path d="M 75.73125 296.550036 
L 968.53125 296.550036 
" clip-path="url(#p2eaf5a90e7)" style="fill: none; stroke: #b0b0b0; stroke-width: 0.8; stroke-linecap: square"/>
     </g>
     <g id="line2d_20">
      <g>
       <use xlink:href="#m3a631ad71d" x="75.73125" y="296.550036" style="stroke: #000000; stroke-width: 0.8"/>
      </g>
     </g>
     <g id="text_11">
      <!-- 80 -->
      <g transform="translate(43.28125 304.148474) scale(0.2 -0.2)">
       <defs>
        <path id="DejaVuSans-38" d="M 2034 2216 
Q 1584 2216 1326 1975 
Q 1069 1734 1069 1313 
Q 1069 891 1326 650 
Q 1584 409 2034 409 
Q 2484 409 2743 651 
Q 3003 894 3003 1313 
Q 3003 1734 2745 1975 
Q 2488 2216 2034 2216 
z
M 1403 2484 
Q 997 2584 770 2862 
Q 544 3141 544 3541 
Q 544 4100 942 4425 
Q 1341 4750 2034 4750 
Q 2731 4750 3128 4425 
Q 3525 4100 3525 3541 
Q 3525 3141 3298 2862 
Q 3072 2584 2669 2484 
Q 3125 2378 3379 2068 
Q 3634 1759 3634 1313 
Q 3634 634 3220 271 
Q 2806 -91 2034 -91 
Q 1263 -91 848 271 
Q 434 634 434 1313 
Q 434 1759 690 2068 
Q 947 2378 1403 2484 
z
M 1172 3481 
Q 1172 3119 1398 2916 
Q 1625 2713 2034 2713 
Q 2441 2713 2670 2916 
Q 2900 3119 2900 3481 
Q 2900 3844 2670 4047 
Q 2441 4250 2034 4250 
Q 1625 4250 1398 4047 
Q 1172 3844 1172 3481 
z
" transform="scale(0.015625)"/>
       </defs>
       <use xlink:href="#DejaVuSans-38"/>
       <use xlink:href="#DejaVuSans-30" transform="translate(63.623047 0)"/>
      </g>
     </g>
    </g>
    <g id="ytick_5">
     <g id="line2d_21">
      <path d="M 75.73125 179.113143 
L 968.53125 179.113143 
" clip-path="url(#p2eaf5a90e7)" style="fill: none; stroke: #b0b0b0; stroke-width: 0.8; stroke-linecap: square"/>
     </g>
     <g id="line2d_22">
      <g>
       <use xlink:href="#m3a631ad71d" x="75.73125" y="179.113143" style="stroke: #000000; stroke-width: 0.8"/>
      </g>
     </g>
     <g id="text_12">
      <!-- 90 -->
      <g transform="translate(43.28125 186.711581) scale(0.2 -0.2)">
       <defs>
        <path id="DejaVuSans-39" d="M 703 97 
L 703 672 
Q 941 559 1184 500 
Q 1428 441 1663 441 
Q 2288 441 2617 861 
Q 2947 1281 2994 2138 
Q 2813 1869 2534 1725 
Q 2256 1581 1919 1581 
Q 1219 1581 811 2004 
Q 403 2428 403 3163 
Q 403 3881 828 4315 
Q 1253 4750 1959 4750 
Q 2769 4750 3195 4129 
Q 3622 3509 3622 2328 
Q 3622 1225 3098 567 
Q 2575 -91 1691 -91 
Q 1453 -91 1209 -44 
Q 966 3 703 97 
z
M 1959 2075 
Q 2384 2075 2632 2365 
Q 2881 2656 2881 3163 
Q 2881 3666 2632 3958 
Q 2384 4250 1959 4250 
Q 1534 4250 1286 3958 
Q 1038 3666 1038 3163 
Q 1038 2656 1286 2365 
Q 1534 2075 1959 2075 
z
" transform="scale(0.015625)"/>
       </defs>
       <use xlink:href="#DejaVuSans-39"/>
       <use xlink:href="#DejaVuSans-30" transform="translate(63.623047 0)"/>
      </g>
     </g>
    </g>
    <g id="ytick_6">
     <g id="line2d_23">
      <path d="M 75.73125 61.67625 
L 968.53125 61.67625 
" clip-path="url(#p2eaf5a90e7)" style="fill: none; stroke: #b0b0b0; stroke-width: 0.8; stroke-linecap: square"/>
     </g>
     <g id="line2d_24">
      <g>
       <use xlink:href="#m3a631ad71d" x="75.73125" y="61.67625" style="stroke: #000000; stroke-width: 0.8"/>
      </g>
     </g>
     <g id="text_13">
      <!-- 100 -->
      <g transform="translate(30.55625 69.274688) scale(0.2 -0.2)">
       <use xlink:href="#DejaVuSans-31"/>
       <use xlink:href="#DejaVuSans-30" transform="translate(63.623047 0)"/>
       <use xlink:href="#DejaVuSans-30" transform="translate(127.246094 0)"/>
      </g>
     </g>
    </g>
    <g id="text_14">
     <!-- Accuracy -->
     <g transform="translate(22.396875 409.7325) rotate(-90) scale(0.2 -0.2)">
      <defs>
       <path id="DejaVuSans-41" d="M 2188 4044 
L 1331 1722 
L 3047 1722 
L 2188 4044 
z
M 1831 4666 
L 2547 4666 
L 4325 0 
L 3669 0 
L 3244 1197 
L 1141 1197 
L 716 0 
L 50 0 
L 1831 4666 
z
" transform="scale(0.015625)"/>
       <path id="DejaVuSans-63" d="M 3122 3366 
L 3122 2828 
Q 2878 2963 2633 3030 
Q 2388 3097 2138 3097 
Q 1578 3097 1268 2742 
Q 959 2388 959 1747 
Q 959 1106 1268 751 
Q 1578 397 2138 397 
Q 2388 397 2633 464 
Q 2878 531 3122 666 
L 3122 134 
Q 2881 22 2623 -34 
Q 2366 -91 2075 -91 
Q 1284 -91 818 406 
Q 353 903 353 1747 
Q 353 2603 823 3093 
Q 1294 3584 2113 3584 
Q 2378 3584 2631 3529 
Q 2884 3475 3122 3366 
z
" transform="scale(0.015625)"/>
       <path id="DejaVuSans-75" d="M 544 1381 
L 544 3500 
L 1119 3500 
L 1119 1403 
Q 1119 906 1312 657 
Q 1506 409 1894 409 
Q 2359 409 2629 706 
Q 2900 1003 2900 1516 
L 2900 3500 
L 3475 3500 
L 3475 0 
L 2900 0 
L 2900 538 
Q 2691 219 2414 64 
Q 2138 -91 1772 -91 
Q 1169 -91 856 284 
Q 544 659 544 1381 
z
M 1991 3584 
L 1991 3584 
z
" transform="scale(0.015625)"/>
       <path id="DejaVuSans-79" d="M 2059 -325 
Q 1816 -950 1584 -1140 
Q 1353 -1331 966 -1331 
L 506 -1331 
L 506 -850 
L 844 -850 
Q 1081 -850 1212 -737 
Q 1344 -625 1503 -206 
L 1606 56 
L 191 3500 
L 800 3500 
L 1894 763 
L 2988 3500 
L 3597 3500 
L 2059 -325 
z
" transform="scale(0.015625)"/>
      </defs>
      <use xlink:href="#DejaVuSans-41"/>
      <use xlink:href="#DejaVuSans-63" transform="translate(66.658203 0)"/>
      <use xlink:href="#DejaVuSans-63" transform="translate(121.638672 0)"/>
      <use xlink:href="#DejaVuSans-75" transform="translate(176.619141 0)"/>
      <use xlink:href="#DejaVuSans-72" transform="translate(239.998047 0)"/>
      <use xlink:href="#DejaVuSans-61" transform="translate(281.111328 0)"/>
      <use xlink:href="#DejaVuSans-63" transform="translate(342.390625 0)"/>
      <use xlink:href="#DejaVuSans-79" transform="translate(397.371094 0)"/>
     </g>
    </g>
   </g>
   <g id="line2d_25">
    <path d="M 116.313068 648.860716 
L 132.877076 648.860716 
L 149.441083 631.245182 
L 166.00509 607.757803 
L 182.569098 648.860716 
L 199.133105 637.117027 
L 215.697113 666.47625 
L 232.26112 625.373337 
L 248.825128 625.373337 
L 265.389135 654.732561 
L 281.953142 660.604405 
L 298.51715 631.245182 
L 315.081157 613.629648 
L 331.645165 625.373337 
L 348.209172 596.014114 
L 364.773179 590.142269 
L 381.337187 584.270425 
L 397.901194 584.270425 
L 414.465202 572.526735 
L 431.029209 531.423823 
L 447.593217 549.039357 
L 464.157224 507.936444 
L 480.721231 513.808289 
L 497.285239 502.0646 
L 513.849246 478.577221 
L 530.413254 466.833532 
L 546.977261 466.833532 
L 563.541269 425.730619 
L 580.105276 408.115085 
L 596.669283 408.115085 
L 613.233291 413.98693 
L 629.797298 384.627706 
L 646.361306 378.755862 
L 662.925313 378.755862 
L 679.489321 367.012172 
L 696.053328 343.524794 
L 712.617335 320.037415 
L 729.181343 361.140328 
L 745.74535 343.524794 
L 762.309358 320.037415 
L 778.873365 302.421881 
L 795.437372 273.062658 
L 812.00138 278.934502 
L 828.565387 261.318968 
L 845.129395 273.062658 
L 861.693402 290.678192 
L 878.25741 278.934502 
L 894.821417 237.83159 
L 911.385424 237.83159 
L 927.949432 231.959745 
" clip-path="url(#p2eaf5a90e7)" style="fill: none; stroke: #1f77b4; stroke-width: 1.5; stroke-linecap: square"/>
   </g>
   <g id="line2d_26">
    <path d="M 116.313068 631.245182 
L 132.877076 631.245182 
L 149.441083 642.988871 
L 166.00509 648.860716 
L 182.569098 625.373337 
L 199.133105 619.501493 
L 215.697113 613.629648 
L 232.26112 631.245182 
L 248.825128 619.501493 
L 265.389135 625.373337 
L 281.953142 607.757803 
L 298.51715 584.270425 
L 315.081157 584.270425 
L 331.645165 572.526735 
L 348.209172 560.783046 
L 364.773179 554.911201 
L 381.337187 513.808289 
L 397.901194 484.449066 
L 414.465202 460.961687 
L 431.029209 413.98693 
L 447.593217 402.24324 
L 464.157224 378.755862 
L 480.721231 384.627706 
L 497.285239 367.012172 
L 513.849246 343.524794 
L 530.413254 343.524794 
L 546.977261 337.652949 
L 563.541269 290.678192 
L 580.105276 302.421881 
L 596.669283 296.550036 
L 613.233291 290.678192 
L 629.797298 278.934502 
L 646.361306 278.934502 
L 662.925313 273.062658 
L 679.489321 261.318968 
L 696.053328 267.190813 
L 712.617335 255.447124 
L 729.181343 255.447124 
L 745.74535 267.190813 
L 762.309358 249.575279 
L 778.873365 243.703434 
L 795.437372 226.0879 
L 812.00138 214.344211 
L 828.565387 202.600522 
L 845.129395 167.369454 
L 861.693402 179.113143 
L 878.25741 190.856833 
L 894.821417 184.984988 
L 911.385424 190.856833 
L 927.949432 196.728677 
" clip-path="url(#p2eaf5a90e7)" style="fill: none; stroke: #aec7e8; stroke-width: 1.5; stroke-linecap: square"/>
   </g>
   <g id="line2d_27">
    <path d="M 116.313068 619.501493 
L 132.877076 625.373337 
L 149.441083 637.117027 
L 166.00509 631.245182 
L 182.569098 578.39858 
L 199.133105 543.167512 
L 215.697113 543.167512 
L 232.26112 502.0646 
L 248.825128 502.0646 
L 265.389135 478.577221 
L 281.953142 466.833532 
L 298.51715 443.346153 
L 315.081157 419.858774 
L 331.645165 402.24324 
L 348.209172 361.140328 
L 364.773179 331.781104 
L 381.337187 320.037415 
L 397.901194 308.293726 
L 414.465202 273.062658 
L 431.029209 231.959745 
L 447.593217 214.344211 
L 464.157224 214.344211 
L 480.721231 196.728677 
L 497.285239 155.625765 
L 513.849246 155.625765 
L 530.413254 161.497609 
L 546.977261 149.75392 
L 563.541269 155.625765 
L 580.105276 143.882075 
L 596.669283 126.266541 
L 613.233291 108.651007 
L 629.797298 102.779163 
L 646.361306 114.522852 
L 662.925313 120.394697 
L 679.489321 114.522852 
L 696.053328 96.907318 
L 712.617335 85.163629 
L 729.181343 85.163629 
L 745.74535 79.291784 
L 762.309358 85.163629 
L 778.873365 85.163629 
L 795.437372 91.035473 
L 812.00138 79.291784 
L 828.565387 79.291784 
L 845.129395 79.291784 
L 861.693402 79.291784 
L 878.25741 73.419939 
L 894.821417 79.291784 
L 911.385424 67.548095 
L 927.949432 61.67625 
" clip-path="url(#p2eaf5a90e7)" style="fill: none; stroke: #ffbb78; stroke-width: 1.5; stroke-linecap: square"/>
   </g>
   <g id="line2d_28">
    <path d="M 116.313068 648.860716 
L 132.877076 619.501493 
L 149.441083 590.142269 
L 166.00509 543.167512 
L 182.569098 502.0646 
L 199.133105 478.577221 
L 215.697113 431.602464 
L 232.26112 402.24324 
L 248.825128 331.781104 
L 265.389135 325.90926 
L 281.953142 284.806347 
L 298.51715 237.83159 
L 315.081157 231.959745 
L 331.645165 220.216056 
L 348.209172 173.241299 
L 364.773179 167.369454 
L 381.337187 173.241299 
L 397.901194 167.369454 
L 414.465202 155.625765 
L 431.029209 143.882075 
L 447.593217 138.010231 
L 464.157224 138.010231 
L 480.721231 126.266541 
L 497.285239 108.651007 
L 513.849246 91.035473 
L 530.413254 96.907318 
L 546.977261 102.779163 
L 563.541269 91.035473 
L 580.105276 85.163629 
L 596.669283 85.163629 
L 613.233291 73.419939 
L 629.797298 67.548095 
L 646.361306 67.548095 
L 662.925313 67.548095 
L 679.489321 73.419939 
L 696.053328 67.548095 
L 712.617335 67.548095 
L 729.181343 67.548095 
L 745.74535 67.548095 
L 762.309358 67.548095 
L 778.873365 61.67625 
L 795.437372 61.67625 
L 812.00138 61.67625 
L 828.565387 61.67625 
L 845.129395 61.67625 
L 861.693402 61.67625 
L 878.25741 61.67625 
L 894.821417 61.67625 
L 911.385424 61.67625 
L 927.949432 61.67625 
" clip-path="url(#p2eaf5a90e7)" style="fill: none; stroke: #98df8a; stroke-width: 1.5; stroke-linecap: square"/>
   </g>
   <g id="line2d_29">
    <path d="M 116.313068 625.373337 
L 132.877076 590.142269 
L 149.441083 549.039357 
L 166.00509 519.680133 
L 182.569098 449.217998 
L 199.133105 443.346153 
L 215.697113 413.98693 
L 232.26112 367.012172 
L 248.825128 361.140328 
L 265.389135 343.524794 
L 281.953142 314.16557 
L 298.51715 214.344211 
L 315.081157 214.344211 
L 331.645165 220.216056 
L 348.209172 220.216056 
L 364.773179 190.856833 
L 381.337187 184.984988 
L 397.901194 184.984988 
L 414.465202 190.856833 
L 431.029209 167.369454 
L 447.593217 138.010231 
L 464.157224 114.522852 
L 480.721231 132.138386 
L 497.285239 114.522852 
L 513.849246 102.779163 
L 530.413254 91.035473 
L 546.977261 85.163629 
L 563.541269 79.291784 
L 580.105276 79.291784 
L 596.669283 67.548095 
L 613.233291 73.419939 
L 629.797298 67.548095 
L 646.361306 67.548095 
L 662.925313 67.548095 
L 679.489321 67.548095 
L 696.053328 67.548095 
L 712.617335 67.548095 
L 729.181343 67.548095 
L 745.74535 67.548095 
L 762.309358 67.548095 
L 778.873365 67.548095 
L 795.437372 67.548095 
L 812.00138 67.548095 
L 828.565387 61.67625 
L 845.129395 61.67625 
L 861.693402 61.67625 
L 878.25741 61.67625 
L 894.821417 61.67625 
L 911.385424 61.67625 
L 927.949432 61.67625 
" clip-path="url(#p2eaf5a90e7)" style="fill: none; stroke: #d62728; stroke-width: 1.5; stroke-linecap: square"/>
   </g>
   <g id="line2d_30">
    <path d="M 116.313068 637.117027 
L 132.877076 590.142269 
L 149.441083 578.39858 
L 166.00509 490.32091 
L 182.569098 472.705376 
L 199.133105 425.730619 
L 215.697113 402.24324 
L 232.26112 390.499551 
L 248.825128 408.115085 
L 265.389135 372.884017 
L 281.953142 320.037415 
L 298.51715 290.678192 
L 315.081157 231.959745 
L 331.645165 220.216056 
L 348.209172 237.83159 
L 364.773179 190.856833 
L 381.337187 202.600522 
L 397.901194 196.728677 
L 414.465202 173.241299 
L 431.029209 155.625765 
L 447.593217 132.138386 
L 464.157224 120.394697 
L 480.721231 102.779163 
L 497.285239 96.907318 
L 513.849246 102.779163 
L 530.413254 102.779163 
L 546.977261 108.651007 
L 563.541269 85.163629 
L 580.105276 73.419939 
L 596.669283 67.548095 
L 613.233291 61.67625 
L 629.797298 61.67625 
L 646.361306 61.67625 
L 662.925313 61.67625 
L 679.489321 61.67625 
L 696.053328 61.67625 
L 712.617335 61.67625 
L 729.181343 61.67625 
L 745.74535 67.548095 
L 762.309358 61.67625 
L 778.873365 61.67625 
L 795.437372 61.67625 
L 812.00138 61.67625 
L 828.565387 61.67625 
L 845.129395 61.67625 
L 861.693402 61.67625 
L 878.25741 61.67625 
L 894.821417 61.67625 
L 911.385424 61.67625 
L 927.949432 61.67625 
" clip-path="url(#p2eaf5a90e7)" style="fill: none; stroke: #9467bd; stroke-width: 1.5; stroke-linecap: square"/>
   </g>
   <g id="line2d_31">
    <path d="M 116.313068 660.604405 
L 132.877076 625.373337 
L 149.441083 572.526735 
L 166.00509 549.039357 
L 182.569098 519.680133 
L 199.133105 496.192755 
L 215.697113 502.0646 
L 232.26112 396.371396 
L 248.825128 390.499551 
L 265.389135 378.755862 
L 281.953142 349.396638 
L 298.51715 308.293726 
L 315.081157 308.293726 
L 331.645165 302.421881 
L 348.209172 284.806347 
L 364.773179 267.190813 
L 381.337187 267.190813 
L 397.901194 220.216056 
L 414.465202 196.728677 
L 431.029209 167.369454 
L 447.593217 143.882075 
L 464.157224 155.625765 
L 480.721231 155.625765 
L 497.285239 138.010231 
L 513.849246 132.138386 
L 530.413254 108.651007 
L 546.977261 126.266541 
L 563.541269 79.291784 
L 580.105276 67.548095 
L 596.669283 67.548095 
L 613.233291 67.548095 
L 629.797298 61.67625 
L 646.361306 67.548095 
L 662.925313 67.548095 
L 679.489321 67.548095 
L 696.053328 67.548095 
L 712.617335 61.67625 
L 729.181343 61.67625 
L 745.74535 61.67625 
L 762.309358 61.67625 
L 778.873365 61.67625 
L 795.437372 61.67625 
L 812.00138 61.67625 
L 828.565387 61.67625 
L 845.129395 61.67625 
L 861.693402 61.67625 
L 878.25741 61.67625 
L 894.821417 61.67625 
L 911.385424 61.67625 
L 927.949432 61.67625 
" clip-path="url(#p2eaf5a90e7)" style="fill: none; stroke: #8c564b; stroke-width: 1.5; stroke-linecap: square"/>
   </g>
   <g id="line2d_32">
    <path d="M 116.313068 642.988871 
L 132.877076 619.501493 
L 149.441083 619.501493 
L 166.00509 584.270425 
L 182.569098 519.680133 
L 199.133105 572.526735 
L 215.697113 584.270425 
L 232.26112 496.192755 
L 248.825128 484.449066 
L 265.389135 490.32091 
L 281.953142 455.089842 
L 298.51715 419.858774 
L 315.081157 396.371396 
L 331.645165 408.115085 
L 348.209172 337.652949 
L 364.773179 308.293726 
L 381.337187 278.934502 
L 397.901194 243.703434 
L 414.465202 243.703434 
L 431.029209 196.728677 
L 447.593217 173.241299 
L 464.157224 202.600522 
L 480.721231 190.856833 
L 497.285239 155.625765 
L 513.849246 114.522852 
L 530.413254 132.138386 
L 546.977261 120.394697 
L 563.541269 91.035473 
L 580.105276 73.419939 
L 596.669283 67.548095 
L 613.233291 67.548095 
L 629.797298 67.548095 
L 646.361306 67.548095 
L 662.925313 61.67625 
L 679.489321 67.548095 
L 696.053328 61.67625 
L 712.617335 61.67625 
L 729.181343 67.548095 
L 745.74535 61.67625 
L 762.309358 61.67625 
L 778.873365 61.67625 
L 795.437372 61.67625 
L 812.00138 61.67625 
L 828.565387 61.67625 
L 845.129395 61.67625 
L 861.693402 61.67625 
L 878.25741 61.67625 
L 894.821417 61.67625 
L 911.385424 61.67625 
L 927.949432 61.67625 
" clip-path="url(#p2eaf5a90e7)" style="fill: none; stroke: #e377c2; stroke-width: 1.5; stroke-linecap: square"/>
   </g>
   <g id="line2d_33">
    <path d="M 116.313068 648.860716 
L 132.877076 625.373337 
L 149.441083 619.501493 
L 166.00509 607.757803 
L 182.569098 590.142269 
L 199.133105 590.142269 
L 215.697113 578.39858 
L 232.26112 549.039357 
L 248.825128 572.526735 
L 265.389135 572.526735 
L 281.953142 519.680133 
L 298.51715 519.680133 
L 315.081157 460.961687 
L 331.645165 449.217998 
L 348.209172 431.602464 
L 364.773179 384.627706 
L 381.337187 343.524794 
L 397.901194 349.396638 
L 414.465202 355.268483 
L 431.029209 296.550036 
L 447.593217 249.575279 
L 464.157224 255.447124 
L 480.721231 249.575279 
L 497.285239 161.497609 
L 513.849246 161.497609 
L 530.413254 138.010231 
L 546.977261 132.138386 
L 563.541269 96.907318 
L 580.105276 85.163629 
L 596.669283 79.291784 
L 613.233291 85.163629 
L 629.797298 73.419939 
L 646.361306 67.548095 
L 662.925313 73.419939 
L 679.489321 73.419939 
L 696.053328 67.548095 
L 712.617335 61.67625 
L 729.181343 61.67625 
L 745.74535 61.67625 
L 762.309358 61.67625 
L 778.873365 61.67625 
L 795.437372 61.67625 
L 812.00138 61.67625 
L 828.565387 61.67625 
L 845.129395 61.67625 
L 861.693402 61.67625 
L 878.25741 67.548095 
L 894.821417 61.67625 
L 911.385424 61.67625 
L 927.949432 61.67625 
" clip-path="url(#p2eaf5a90e7)" style="fill: none; stroke: #f7b6d2; stroke-width: 1.5; stroke-linecap: square"/>
   </g>
   <g id="line2d_34">
    <path d="M 116.313068 648.860716 
L 132.877076 654.732561 
L 149.441083 631.245182 
L 166.00509 625.373337 
L 182.569098 619.501493 
L 199.133105 631.245182 
L 215.697113 619.501493 
L 232.26112 607.757803 
L 248.825128 590.142269 
L 265.389135 601.885959 
L 281.953142 584.270425 
L 298.51715 572.526735 
L 315.081157 549.039357 
L 331.645165 537.295667 
L 348.209172 543.167512 
L 364.773179 490.32091 
L 381.337187 502.0646 
L 397.901194 484.449066 
L 414.465202 437.474308 
L 431.029209 390.499551 
L 447.593217 343.524794 
L 464.157224 314.16557 
L 480.721231 314.16557 
L 497.285239 278.934502 
L 513.849246 226.0879 
L 530.413254 208.472367 
L 546.977261 190.856833 
L 563.541269 173.241299 
L 580.105276 132.138386 
L 596.669283 132.138386 
L 613.233291 132.138386 
L 629.797298 91.035473 
L 646.361306 85.163629 
L 662.925313 85.163629 
L 679.489321 91.035473 
L 696.053328 79.291784 
L 712.617335 79.291784 
L 729.181343 73.419939 
L 745.74535 67.548095 
L 762.309358 67.548095 
L 778.873365 73.419939 
L 795.437372 67.548095 
L 812.00138 67.548095 
L 828.565387 67.548095 
L 845.129395 61.67625 
L 861.693402 61.67625 
L 878.25741 67.548095 
L 894.821417 67.548095 
L 911.385424 61.67625 
L 927.949432 61.67625 
" clip-path="url(#p2eaf5a90e7)" style="fill: none; stroke: #c7c7c7; stroke-width: 1.5; stroke-linecap: square"/>
   </g>
   <g id="patch_3">
    <path d="M 75.73125 696.71625 
L 75.73125 31.43625 
" style="fill: none; stroke: #000000; stroke-width: 0.8; stroke-linejoin: miter; stroke-linecap: square"/>
   </g>
   <g id="patch_4">
    <path d="M 968.53125 696.71625 
L 968.53125 31.43625 
" style="fill: none; stroke: #000000; stroke-width: 0.8; stroke-linejoin: miter; stroke-linecap: square"/>
   </g>
   <g id="patch_5">
    <path d="M 75.73125 696.71625 
L 968.53125 696.71625 
" style="fill: none; stroke: #000000; stroke-width: 0.8; stroke-linejoin: miter; stroke-linecap: square"/>
   </g>
   <g id="patch_6">
    <path d="M 75.73125 31.43625 
L 968.53125 31.43625 
" style="fill: none; stroke: #000000; stroke-width: 0.8; stroke-linejoin: miter; stroke-linecap: square"/>
   </g>
   <g id="text_15">
    <!-- 3 Layer Model Train Acc vs. Trial -->
    <g transform="translate(330.46125 25.43625) scale(0.24 -0.24)">
     <defs>
      <path id="DejaVuSans-20" transform="scale(0.015625)"/>
      <path id="DejaVuSans-4c" d="M 628 4666 
L 1259 4666 
L 1259 531 
L 3531 531 
L 3531 0 
L 628 0 
L 628 4666 
z
" transform="scale(0.015625)"/>
      <path id="DejaVuSans-65" d="M 3597 1894 
L 3597 1613 
L 953 1613 
Q 991 1019 1311 708 
Q 1631 397 2203 397 
Q 2534 397 2845 478 
Q 3156 559 3463 722 
L 3463 178 
Q 3153 47 2828 -22 
Q 2503 -91 2169 -91 
Q 1331 -91 842 396 
Q 353 884 353 1716 
Q 353 2575 817 3079 
Q 1281 3584 2069 3584 
Q 2775 3584 3186 3129 
Q 3597 2675 3597 1894 
z
M 3022 2063 
Q 3016 2534 2758 2815 
Q 2500 3097 2075 3097 
Q 1594 3097 1305 2825 
Q 1016 2553 972 2059 
L 3022 2063 
z
" transform="scale(0.015625)"/>
      <path id="DejaVuSans-4d" d="M 628 4666 
L 1569 4666 
L 2759 1491 
L 3956 4666 
L 4897 4666 
L 4897 0 
L 4281 0 
L 4281 4097 
L 3078 897 
L 2444 897 
L 1241 4097 
L 1241 0 
L 628 0 
L 628 4666 
z
" transform="scale(0.015625)"/>
      <path id="DejaVuSans-6f" d="M 1959 3097 
Q 1497 3097 1228 2736 
Q 959 2375 959 1747 
Q 959 1119 1226 758 
Q 1494 397 1959 397 
Q 2419 397 2687 759 
Q 2956 1122 2956 1747 
Q 2956 2369 2687 2733 
Q 2419 3097 1959 3097 
z
M 1959 3584 
Q 2709 3584 3137 3096 
Q 3566 2609 3566 1747 
Q 3566 888 3137 398 
Q 2709 -91 1959 -91 
Q 1206 -91 779 398 
Q 353 888 353 1747 
Q 353 2609 779 3096 
Q 1206 3584 1959 3584 
z
" transform="scale(0.015625)"/>
      <path id="DejaVuSans-64" d="M 2906 2969 
L 2906 4863 
L 3481 4863 
L 3481 0 
L 2906 0 
L 2906 525 
Q 2725 213 2448 61 
Q 2172 -91 1784 -91 
Q 1150 -91 751 415 
Q 353 922 353 1747 
Q 353 2572 751 3078 
Q 1150 3584 1784 3584 
Q 2172 3584 2448 3432 
Q 2725 3281 2906 2969 
z
M 947 1747 
Q 947 1113 1208 752 
Q 1469 391 1925 391 
Q 2381 391 2643 752 
Q 2906 1113 2906 1747 
Q 2906 2381 2643 2742 
Q 2381 3103 1925 3103 
Q 1469 3103 1208 2742 
Q 947 2381 947 1747 
z
" transform="scale(0.015625)"/>
      <path id="DejaVuSans-6e" d="M 3513 2113 
L 3513 0 
L 2938 0 
L 2938 2094 
Q 2938 2591 2744 2837 
Q 2550 3084 2163 3084 
Q 1697 3084 1428 2787 
Q 1159 2491 1159 1978 
L 1159 0 
L 581 0 
L 581 3500 
L 1159 3500 
L 1159 2956 
Q 1366 3272 1645 3428 
Q 1925 3584 2291 3584 
Q 2894 3584 3203 3211 
Q 3513 2838 3513 2113 
z
" transform="scale(0.015625)"/>
      <path id="DejaVuSans-76" d="M 191 3500 
L 800 3500 
L 1894 563 
L 2988 3500 
L 3597 3500 
L 2284 0 
L 1503 0 
L 191 3500 
z
" transform="scale(0.015625)"/>
      <path id="DejaVuSans-73" d="M 2834 3397 
L 2834 2853 
Q 2591 2978 2328 3040 
Q 2066 3103 1784 3103 
Q 1356 3103 1142 2972 
Q 928 2841 928 2578 
Q 928 2378 1081 2264 
Q 1234 2150 1697 2047 
L 1894 2003 
Q 2506 1872 2764 1633 
Q 3022 1394 3022 966 
Q 3022 478 2636 193 
Q 2250 -91 1575 -91 
Q 1294 -91 989 -36 
Q 684 19 347 128 
L 347 722 
Q 666 556 975 473 
Q 1284 391 1588 391 
Q 1994 391 2212 530 
Q 2431 669 2431 922 
Q 2431 1156 2273 1281 
Q 2116 1406 1581 1522 
L 1381 1569 
Q 847 1681 609 1914 
Q 372 2147 372 2553 
Q 372 3047 722 3315 
Q 1072 3584 1716 3584 
Q 2034 3584 2315 3537 
Q 2597 3491 2834 3397 
z
" transform="scale(0.015625)"/>
      <path id="DejaVuSans-2e" d="M 684 794 
L 1344 794 
L 1344 0 
L 684 0 
L 684 794 
z
" transform="scale(0.015625)"/>
     </defs>
     <use xlink:href="#DejaVuSans-33"/>
     <use xlink:href="#DejaVuSans-20" transform="translate(63.623047 0)"/>
     <use xlink:href="#DejaVuSans-4c" transform="translate(95.410156 0)"/>
     <use xlink:href="#DejaVuSans-61" transform="translate(151.123047 0)"/>
     <use xlink:href="#DejaVuSans-79" transform="translate(212.402344 0)"/>
     <use xlink:href="#DejaVuSans-65" transform="translate(271.582031 0)"/>
     <use xlink:href="#DejaVuSans-72" transform="translate(333.105469 0)"/>
     <use xlink:href="#DejaVuSans-20" transform="translate(374.21875 0)"/>
     <use xlink:href="#DejaVuSans-4d" transform="translate(406.005859 0)"/>
     <use xlink:href="#DejaVuSans-6f" transform="translate(492.285156 0)"/>
     <use xlink:href="#DejaVuSans-64" transform="translate(553.466797 0)"/>
     <use xlink:href="#DejaVuSans-65" transform="translate(616.943359 0)"/>
     <use xlink:href="#DejaVuSans-6c" transform="translate(678.466797 0)"/>
     <use xlink:href="#DejaVuSans-20" transform="translate(706.25 0)"/>
     <use xlink:href="#DejaVuSans-54" transform="translate(738.037109 0)"/>
     <use xlink:href="#DejaVuSans-72" transform="translate(784.371094 0)"/>
     <use xlink:href="#DejaVuSans-61" transform="translate(825.484375 0)"/>
     <use xlink:href="#DejaVuSans-69" transform="translate(886.763672 0)"/>
     <use xlink:href="#DejaVuSans-6e" transform="translate(914.546875 0)"/>
     <use xlink:href="#DejaVuSans-20" transform="translate(977.925781 0)"/>
     <use xlink:href="#DejaVuSans-41" transform="translate(1009.712891 0)"/>
     <use xlink:href="#DejaVuSans-63" transform="translate(1076.371094 0)"/>
     <use xlink:href="#DejaVuSans-63" transform="translate(1131.351562 0)"/>
     <use xlink:href="#DejaVuSans-20" transform="translate(1186.332031 0)"/>
     <use xlink:href="#DejaVuSans-76" transform="translate(1218.119141 0)"/>
     <use xlink:href="#DejaVuSans-73" transform="translate(1277.298828 0)"/>
     <use xlink:href="#DejaVuSans-2e" transform="translate(1329.398438 0)"/>
     <use xlink:href="#DejaVuSans-20" transform="translate(1361.185547 0)"/>
     <use xlink:href="#DejaVuSans-54" transform="translate(1392.972656 0)"/>
     <use xlink:href="#DejaVuSans-72" transform="translate(1439.306641 0)"/>
     <use xlink:href="#DejaVuSans-69" transform="translate(1480.419922 0)"/>
     <use xlink:href="#DejaVuSans-61" transform="translate(1508.203125 0)"/>
     <use xlink:href="#DejaVuSans-6c" transform="translate(1569.482422 0)"/>
    </g>
   </g>
   <g id="legend_1">
    <g id="patch_7">
     <path d="M 758.321875 686.71625 
L 954.53125 686.71625 
Q 958.53125 686.71625 958.53125 682.71625 
L 958.53125 391.15375 
Q 958.53125 387.15375 954.53125 387.15375 
L 758.321875 387.15375 
Q 754.321875 387.15375 754.321875 391.15375 
L 754.321875 682.71625 
Q 754.321875 686.71625 758.321875 686.71625 
z
" style="fill: #ffffff; opacity: 0.8; stroke: #cccccc; stroke-linejoin: miter"/>
    </g>
    <g id="line2d_35">
     <path d="M 762.321875 403.350625 
L 782.321875 403.350625 
L 802.321875 403.350625 
" style="fill: none; stroke: #1f77b4; stroke-width: 1.5; stroke-linecap: square"/>
    </g>
    <g id="text_16">
     <!-- Dense Model -->
     <g transform="translate(818.321875 410.350625) scale(0.2 -0.2)">
      <defs>
       <path id="DejaVuSans-44" d="M 1259 4147 
L 1259 519 
L 2022 519 
Q 2988 519 3436 956 
Q 3884 1394 3884 2338 
Q 3884 3275 3436 3711 
Q 2988 4147 2022 4147 
L 1259 4147 
z
M 628 4666 
L 1925 4666 
Q 3281 4666 3915 4102 
Q 4550 3538 4550 2338 
Q 4550 1131 3912 565 
Q 3275 0 1925 0 
L 628 0 
L 628 4666 
z
" transform="scale(0.015625)"/>
      </defs>
      <use xlink:href="#DejaVuSans-44"/>
      <use xlink:href="#DejaVuSans-65" transform="translate(77.001953 0)"/>
      <use xlink:href="#DejaVuSans-6e" transform="translate(138.525391 0)"/>
      <use xlink:href="#DejaVuSans-73" transform="translate(201.904297 0)"/>
      <use xlink:href="#DejaVuSans-65" transform="translate(254.003906 0)"/>
      <use xlink:href="#DejaVuSans-20" transform="translate(315.527344 0)"/>
      <use xlink:href="#DejaVuSans-4d" transform="translate(347.314453 0)"/>
      <use xlink:href="#DejaVuSans-6f" transform="translate(433.59375 0)"/>
      <use xlink:href="#DejaVuSans-64" transform="translate(494.775391 0)"/>
      <use xlink:href="#DejaVuSans-65" transform="translate(558.251953 0)"/>
      <use xlink:href="#DejaVuSans-6c" transform="translate(619.775391 0)"/>
     </g>
    </g>
    <g id="line2d_36">
     <path d="M 762.321875 432.706875 
L 782.321875 432.706875 
L 802.321875 432.706875 
" style="fill: none; stroke: #aec7e8; stroke-width: 1.5; stroke-linecap: square"/>
    </g>
    <g id="text_17">
     <!-- Sparse 0.01 -->
     <g transform="translate(818.321875 439.706875) scale(0.2 -0.2)">
      <defs>
       <path id="DejaVuSans-53" d="M 3425 4513 
L 3425 3897 
Q 3066 4069 2747 4153 
Q 2428 4238 2131 4238 
Q 1616 4238 1336 4038 
Q 1056 3838 1056 3469 
Q 1056 3159 1242 3001 
Q 1428 2844 1947 2747 
L 2328 2669 
Q 3034 2534 3370 2195 
Q 3706 1856 3706 1288 
Q 3706 609 3251 259 
Q 2797 -91 1919 -91 
Q 1588 -91 1214 -16 
Q 841 59 441 206 
L 441 856 
Q 825 641 1194 531 
Q 1563 422 1919 422 
Q 2459 422 2753 634 
Q 3047 847 3047 1241 
Q 3047 1584 2836 1778 
Q 2625 1972 2144 2069 
L 1759 2144 
Q 1053 2284 737 2584 
Q 422 2884 422 3419 
Q 422 4038 858 4394 
Q 1294 4750 2059 4750 
Q 2388 4750 2728 4690 
Q 3069 4631 3425 4513 
z
" transform="scale(0.015625)"/>
       <path id="DejaVuSans-70" d="M 1159 525 
L 1159 -1331 
L 581 -1331 
L 581 3500 
L 1159 3500 
L 1159 2969 
Q 1341 3281 1617 3432 
Q 1894 3584 2278 3584 
Q 2916 3584 3314 3078 
Q 3713 2572 3713 1747 
Q 3713 922 3314 415 
Q 2916 -91 2278 -91 
Q 1894 -91 1617 61 
Q 1341 213 1159 525 
z
M 3116 1747 
Q 3116 2381 2855 2742 
Q 2594 3103 2138 3103 
Q 1681 3103 1420 2742 
Q 1159 2381 1159 1747 
Q 1159 1113 1420 752 
Q 1681 391 2138 391 
Q 2594 391 2855 752 
Q 3116 1113 3116 1747 
z
" transform="scale(0.015625)"/>
      </defs>
      <use xlink:href="#DejaVuSans-53"/>
      <use xlink:href="#DejaVuSans-70" transform="translate(63.476562 0)"/>
      <use xlink:href="#DejaVuSans-61" transform="translate(126.953125 0)"/>
      <use xlink:href="#DejaVuSans-72" transform="translate(188.232422 0)"/>
      <use xlink:href="#DejaVuSans-73" transform="translate(229.345703 0)"/>
      <use xlink:href="#DejaVuSans-65" transform="translate(281.445312 0)"/>
      <use xlink:href="#DejaVuSans-20" transform="translate(342.96875 0)"/>
      <use xlink:href="#DejaVuSans-30" transform="translate(374.755859 0)"/>
      <use xlink:href="#DejaVuSans-2e" transform="translate(438.378906 0)"/>
      <use xlink:href="#DejaVuSans-30" transform="translate(470.166016 0)"/>
      <use xlink:href="#DejaVuSans-31" transform="translate(533.789062 0)"/>
     </g>
    </g>
    <g id="line2d_37">
     <path d="M 762.321875 462.063125 
L 782.321875 462.063125 
L 802.321875 462.063125 
" style="fill: none; stroke: #ffbb78; stroke-width: 1.5; stroke-linecap: square"/>
    </g>
    <g id="text_18">
     <!-- Sparse 0.025 -->
     <g transform="translate(818.321875 469.063125) scale(0.2 -0.2)">
      <use xlink:href="#DejaVuSans-53"/>
      <use xlink:href="#DejaVuSans-70" transform="translate(63.476562 0)"/>
      <use xlink:href="#DejaVuSans-61" transform="translate(126.953125 0)"/>
      <use xlink:href="#DejaVuSans-72" transform="translate(188.232422 0)"/>
      <use xlink:href="#DejaVuSans-73" transform="translate(229.345703 0)"/>
      <use xlink:href="#DejaVuSans-65" transform="translate(281.445312 0)"/>
      <use xlink:href="#DejaVuSans-20" transform="translate(342.96875 0)"/>
      <use xlink:href="#DejaVuSans-30" transform="translate(374.755859 0)"/>
      <use xlink:href="#DejaVuSans-2e" transform="translate(438.378906 0)"/>
      <use xlink:href="#DejaVuSans-30" transform="translate(470.166016 0)"/>
      <use xlink:href="#DejaVuSans-32" transform="translate(533.789062 0)"/>
      <use xlink:href="#DejaVuSans-35" transform="translate(597.412109 0)"/>
     </g>
    </g>
    <g id="line2d_38">
     <path d="M 762.321875 491.419375 
L 782.321875 491.419375 
L 802.321875 491.419375 
" style="fill: none; stroke: #98df8a; stroke-width: 1.5; stroke-linecap: square"/>
    </g>
    <g id="text_19">
     <!-- Sparse 0.05 -->
     <g transform="translate(818.321875 498.419375) scale(0.2 -0.2)">
      <use xlink:href="#DejaVuSans-53"/>
      <use xlink:href="#DejaVuSans-70" transform="translate(63.476562 0)"/>
      <use xlink:href="#DejaVuSans-61" transform="translate(126.953125 0)"/>
      <use xlink:href="#DejaVuSans-72" transform="translate(188.232422 0)"/>
      <use xlink:href="#DejaVuSans-73" transform="translate(229.345703 0)"/>
      <use xlink:href="#DejaVuSans-65" transform="translate(281.445312 0)"/>
      <use xlink:href="#DejaVuSans-20" transform="translate(342.96875 0)"/>
      <use xlink:href="#DejaVuSans-30" transform="translate(374.755859 0)"/>
      <use xlink:href="#DejaVuSans-2e" transform="translate(438.378906 0)"/>
      <use xlink:href="#DejaVuSans-30" transform="translate(470.166016 0)"/>
      <use xlink:href="#DejaVuSans-35" transform="translate(533.789062 0)"/>
     </g>
    </g>
    <g id="line2d_39">
     <path d="M 762.321875 520.775625 
L 782.321875 520.775625 
L 802.321875 520.775625 
" style="fill: none; stroke: #d62728; stroke-width: 1.5; stroke-linecap: square"/>
    </g>
    <g id="text_20">
     <!-- Sparse 0.075 -->
     <g transform="translate(818.321875 527.775625) scale(0.2 -0.2)">
      <use xlink:href="#DejaVuSans-53"/>
      <use xlink:href="#DejaVuSans-70" transform="translate(63.476562 0)"/>
      <use xlink:href="#DejaVuSans-61" transform="translate(126.953125 0)"/>
      <use xlink:href="#DejaVuSans-72" transform="translate(188.232422 0)"/>
      <use xlink:href="#DejaVuSans-73" transform="translate(229.345703 0)"/>
      <use xlink:href="#DejaVuSans-65" transform="translate(281.445312 0)"/>
      <use xlink:href="#DejaVuSans-20" transform="translate(342.96875 0)"/>
      <use xlink:href="#DejaVuSans-30" transform="translate(374.755859 0)"/>
      <use xlink:href="#DejaVuSans-2e" transform="translate(438.378906 0)"/>
      <use xlink:href="#DejaVuSans-30" transform="translate(470.166016 0)"/>
      <use xlink:href="#DejaVuSans-37" transform="translate(533.789062 0)"/>
      <use xlink:href="#DejaVuSans-35" transform="translate(597.412109 0)"/>
     </g>
    </g>
    <g id="line2d_40">
     <path d="M 762.321875 550.131875 
L 782.321875 550.131875 
L 802.321875 550.131875 
" style="fill: none; stroke: #9467bd; stroke-width: 1.5; stroke-linecap: square"/>
    </g>
    <g id="text_21">
     <!-- Sparse 0.1 -->
     <g transform="translate(818.321875 557.131875) scale(0.2 -0.2)">
      <use xlink:href="#DejaVuSans-53"/>
      <use xlink:href="#DejaVuSans-70" transform="translate(63.476562 0)"/>
      <use xlink:href="#DejaVuSans-61" transform="translate(126.953125 0)"/>
      <use xlink:href="#DejaVuSans-72" transform="translate(188.232422 0)"/>
      <use xlink:href="#DejaVuSans-73" transform="translate(229.345703 0)"/>
      <use xlink:href="#DejaVuSans-65" transform="translate(281.445312 0)"/>
      <use xlink:href="#DejaVuSans-20" transform="translate(342.96875 0)"/>
      <use xlink:href="#DejaVuSans-30" transform="translate(374.755859 0)"/>
      <use xlink:href="#DejaVuSans-2e" transform="translate(438.378906 0)"/>
      <use xlink:href="#DejaVuSans-31" transform="translate(470.166016 0)"/>
     </g>
    </g>
    <g id="line2d_41">
     <path d="M 762.321875 579.488125 
L 782.321875 579.488125 
L 802.321875 579.488125 
" style="fill: none; stroke: #8c564b; stroke-width: 1.5; stroke-linecap: square"/>
    </g>
    <g id="text_22">
     <!-- Sparse 0.15 -->
     <g transform="translate(818.321875 586.488125) scale(0.2 -0.2)">
      <use xlink:href="#DejaVuSans-53"/>
      <use xlink:href="#DejaVuSans-70" transform="translate(63.476562 0)"/>
      <use xlink:href="#DejaVuSans-61" transform="translate(126.953125 0)"/>
      <use xlink:href="#DejaVuSans-72" transform="translate(188.232422 0)"/>
      <use xlink:href="#DejaVuSans-73" transform="translate(229.345703 0)"/>
      <use xlink:href="#DejaVuSans-65" transform="translate(281.445312 0)"/>
      <use xlink:href="#DejaVuSans-20" transform="translate(342.96875 0)"/>
      <use xlink:href="#DejaVuSans-30" transform="translate(374.755859 0)"/>
      <use xlink:href="#DejaVuSans-2e" transform="translate(438.378906 0)"/>
      <use xlink:href="#DejaVuSans-31" transform="translate(470.166016 0)"/>
      <use xlink:href="#DejaVuSans-35" transform="translate(533.789062 0)"/>
     </g>
    </g>
    <g id="line2d_42">
     <path d="M 762.321875 608.844375 
L 782.321875 608.844375 
L 802.321875 608.844375 
" style="fill: none; stroke: #e377c2; stroke-width: 1.5; stroke-linecap: square"/>
    </g>
    <g id="text_23">
     <!-- Sparse 0.2 -->
     <g transform="translate(818.321875 615.844375) scale(0.2 -0.2)">
      <use xlink:href="#DejaVuSans-53"/>
      <use xlink:href="#DejaVuSans-70" transform="translate(63.476562 0)"/>
      <use xlink:href="#DejaVuSans-61" transform="translate(126.953125 0)"/>
      <use xlink:href="#DejaVuSans-72" transform="translate(188.232422 0)"/>
      <use xlink:href="#DejaVuSans-73" transform="translate(229.345703 0)"/>
      <use xlink:href="#DejaVuSans-65" transform="translate(281.445312 0)"/>
      <use xlink:href="#DejaVuSans-20" transform="translate(342.96875 0)"/>
      <use xlink:href="#DejaVuSans-30" transform="translate(374.755859 0)"/>
      <use xlink:href="#DejaVuSans-2e" transform="translate(438.378906 0)"/>
      <use xlink:href="#DejaVuSans-32" transform="translate(470.166016 0)"/>
     </g>
    </g>
    <g id="line2d_43">
     <path d="M 762.321875 638.200625 
L 782.321875 638.200625 
L 802.321875 638.200625 
" style="fill: none; stroke: #f7b6d2; stroke-width: 1.5; stroke-linecap: square"/>
    </g>
    <g id="text_24">
     <!-- Sparse 0.25 -->
     <g transform="translate(818.321875 645.200625) scale(0.2 -0.2)">
      <use xlink:href="#DejaVuSans-53"/>
      <use xlink:href="#DejaVuSans-70" transform="translate(63.476562 0)"/>
      <use xlink:href="#DejaVuSans-61" transform="translate(126.953125 0)"/>
      <use xlink:href="#DejaVuSans-72" transform="translate(188.232422 0)"/>
      <use xlink:href="#DejaVuSans-73" transform="translate(229.345703 0)"/>
      <use xlink:href="#DejaVuSans-65" transform="translate(281.445312 0)"/>
      <use xlink:href="#DejaVuSans-20" transform="translate(342.96875 0)"/>
      <use xlink:href="#DejaVuSans-30" transform="translate(374.755859 0)"/>
      <use xlink:href="#DejaVuSans-2e" transform="translate(438.378906 0)"/>
      <use xlink:href="#DejaVuSans-32" transform="translate(470.166016 0)"/>
      <use xlink:href="#DejaVuSans-35" transform="translate(533.789062 0)"/>
     </g>
    </g>
    <g id="line2d_44">
     <path d="M 762.321875 667.556875 
L 782.321875 667.556875 
L 802.321875 667.556875 
" style="fill: none; stroke: #c7c7c7; stroke-width: 1.5; stroke-linecap: square"/>
    </g>
    <g id="text_25">
     <!-- Sparse 0.3 -->
     <g transform="translate(818.321875 674.556875) scale(0.2 -0.2)">
      <use xlink:href="#DejaVuSans-53"/>
      <use xlink:href="#DejaVuSans-70" transform="translate(63.476562 0)"/>
      <use xlink:href="#DejaVuSans-61" transform="translate(126.953125 0)"/>
      <use xlink:href="#DejaVuSans-72" transform="translate(188.232422 0)"/>
      <use xlink:href="#DejaVuSans-73" transform="translate(229.345703 0)"/>
      <use xlink:href="#DejaVuSans-65" transform="translate(281.445312 0)"/>
      <use xlink:href="#DejaVuSans-20" transform="translate(342.96875 0)"/>
      <use xlink:href="#DejaVuSans-30" transform="translate(374.755859 0)"/>
      <use xlink:href="#DejaVuSans-2e" transform="translate(438.378906 0)"/>
      <use xlink:href="#DejaVuSans-33" transform="translate(470.166016 0)"/>
     </g>
    </g>
   </g>
  </g>
 </g>
 <defs>
  <clipPath id="p2eaf5a90e7">
   <rect x="75.73125" y="31.43625" width="892.8" height="665.28"/>
  </clipPath>
 </defs>
</svg>
